{"title":"The.Ghost.Writer.2010.SWESUB.DVDRip.XviD.AC3.(5.1)-Zen_Bud","uid":5731376,"size":1473182388,"categoryP":"video","categoryS":"movies","magnet":"?xt=urn:btih:4c736a17834fbedb1c5daf5bbcf103038e293efe&amp;dn=The.Ghost.Writer.2010.SWESUB.DVDRip.XviD.AC3.%285.1%29-Zen_Bud&amp;tr=udp%3A%2F%2Ftracker.openbittorrent.com%3A80&amp;tr=udp%3A%2F%2Fopen.demonii.com%3A1337&amp;tr=udp%3A%2F%2Ftracker.coppersurfer.tk%3A6969&amp;tr=udp%3A%2F%2Fexodus.desync.com%3A6969","seeders":0,"leechers":1,"uploader":"Zen_Bud","files":1,"time":1280662546,"description":"General\nComplete name                    : The.Ghost.Writer.2010.avi\nFormat                           : AVI\nFile size                        : 1.37 GiB\nDuration                         : 2h 8mn\nOverall bit rate                 : 1 529 Kbps\n\nVideo\n\nFormat                           : MPEG-4 Visual\nCodec ID/Hint                    : XviD\nDuration                         : 2h 8mn\nBit rate                         : 1 070 Kbps\nWidth                            : 720 pixels\nHeight                           : 368 pixels\nDisplay aspect ratio             : 2.35:1\nStream size                      : 983 MiB (70%)\nWriting library                  : XviD 1.1.2 (UTC 2006-11-01)\n\nAudio\nID                               : 1\nFormat                           : AC-3\nDuration                         : 2h 8mn\nBit rate                         : 448 Kbps\nChannel(s)                       : 6 channels\nChannel positions                : Front: L C R, Side: L R, LFE\nSampling rate                    : 48.0 KHz\nStream size                      : 412 MiB (29%)\nAlignment                        : Aligned on interleaves","torrent":{"xt":"urn:btih:4c736a17834fbedb1c5daf5bbcf103038e293efe","amp;dn":"The.Ghost.Writer.2010.SWESUB.DVDRip.XviD.AC3.%285.1%29-Zen_Bud","amp;tr":["udp%3A%2F%2Ftracker.openbittorrent.com%3A80","udp%3A%2F%2Fopen.demonii.com%3A1337","udp%3A%2F%2Ftracker.coppersurfer.tk%3A6969","udp%3A%2F%2Fexodus.desync.com%3A6969"],"infoHash":"4c736a17834fbedb1c5daf5bbcf103038e293efe","infoHashBuffer":{"type":"Buffer","data":[76,115,106,23,131,79,190,219,28,93,175,91,188,241,3,3,142,41,62,254]},"announce":[],"urlList":[]}}